<?xml version="1.0" encoding="UTF-8" standalone="no"?>
<svg
   xmlns="http://www.w3.org/2000/svg"
   version="1.1"
   width="36"
   height="36"
   viewBox="0 0 36 36"
   preserveAspectRatio="xMidYMid meet">
  <title
     id="title2">block-line</title>
  <path
     style="fill:#8fbcbb"
     d="M 28.985715,4.9715795 18.579006,0.1684825 a 0.8005161,0.8005161 0 0 0 -0.672435,0 L 7.4998623,4.9715795 A 0.8005161,0.8005161 0 0 0 7.035563,5.7000492 V 19.308823 a 0.8005161,0.8005161 0 0 0 0.4642993,0.72847 l 10.4067087,4.803096 a 0.8005161,0.8005161 0 0 0 0.672435,0 l 10.406709,-4.803096 a 0.8005161,0.8005161 0 0 0 0.464299,-0.72847 V 5.7000492 A 0.8005161,0.8005161 0 0 0 28.985715,4.9715795 Z M 18.242788,1.77752 26.736265,5.7000492 18.242788,9.622578 9.7493126,5.7000492 Z M 8.6365952,6.9488541 17.442273,11.015476 V 22.863115 L 8.6365952,18.796493 Z M 19.043304,22.863115 V 11.015476 L 27.848982,6.9488541 V 18.796493 Z" />
  <path
     style="fill:none;stroke:#8fbcbb;stroke-width:1.5"
     d="m 18.708098,27.224358 c -4.32253,0.0073 -8.585215,1.010805 -12.457031,2.932618 -0.9567525,0.475144 -1.5617363,1.45129 -1.5615233,2.519531 v 2.069824 H 32.826262 l -0.0015,-2.069824 c -6.3e-5,-1.068568 -0.605666,-2.044798 -1.562988,-2.519531 -3.901068,-1.936334 -8.198523,-2.940243 -12.553711,-2.932618 z" />
</svg>
